<?xml version="1.0" standalone="no"?>
<!DOCTYPE svg PUBLIC "-//W3C//DTD SVG 20010904//EN"
 "http://www.w3.org/TR/2001/REC-SVG-20010904/DTD/svg10.dtd">
<svg version="1.0" xmlns="http://www.w3.org/2000/svg"
 width="1280.000000pt" height="1060.000000pt" viewBox="0 0 1280.000000 1060.000000"
 preserveAspectRatio="xMidYMid meet">
<metadata>
Created by potrace 1.15, written by Peter Selinger 2001-2017
</metadata>
<g transform="translate(0.000000,1060.000000) scale(0.100000,-0.100000)"
fill="#000000" stroke="none">
<path d="M7373 10571 c-82 -59 -157 -169 -182 -267 -13 -50 -43 -89 -83 -110
-51 -27 -69 5 -89 161 -23 183 -56 193 -208 66 -79 -66 -110 -75 -152 -42 -44
34 -68 42 -88 32 -33 -18 -61 -95 -71 -199 -71 -673 -89 -802 -124 -872 -37
-76 -57 -81 -286 -74 -210 7 -299 0 -544 -42 -243 -41 -386 -63 -526 -78 -164
-18 -239 -34 -394 -81 -235 -71 -409 -140 -741 -293 -71 -33 -164 -68 -205
-77 -41 -10 -85 -21 -97 -26 -36 -13 -56 -54 -57 -119 0 -32 -6 -64 -12 -70
-6 -6 -44 -14 -85 -19 -92 -11 -100 -14 -121 -51 -9 -16 -38 -40 -65 -54 -59
-30 -127 -100 -228 -235 -43 -57 -141 -181 -219 -275 -255 -307 -323 -405
-467 -671 -108 -198 -139 -270 -165 -385 -8 -38 -38 -113 -65 -167 -71 -139
-80 -166 -89 -275 -7 -85 -13 -109 -53 -195 -58 -125 -81 -206 -107 -373 -34
-212 -63 -260 -185 -295 -86 -25 -215 -34 -715 -50 -267 -8 -516 -17 -555 -20
-188 -15 -320 -40 -356 -68 -43 -33 -51 -93 -16 -125 34 -32 79 -42 189 -42
95 0 97 0 122 -30 14 -17 34 -60 45 -96 29 -96 57 -128 138 -155 154 -51 232
-101 259 -166 15 -34 8 -69 -17 -90 -8 -6 -48 -16 -91 -22 -87 -12 -118 -24
-171 -64 -48 -37 -126 -67 -175 -67 -60 0 -139 -27 -161 -57 -56 -70 11 -143
165 -179 79 -18 142 -48 166 -78 15 -18 26 -21 85 -20 37 1 133 11 213 23 262
37 388 45 758 45 l364 1 44 -110 c46 -114 88 -244 98 -307 4 -23 22 -54 50
-85 56 -62 104 -139 147 -233 50 -113 87 -169 115 -176 61 -15 33 -97 -62
-181 -40 -35 -69 -71 -79 -97 -67 -167 -613 -952 -963 -1384 -118 -145 -134
-202 -135 -467 -1 -187 7 -221 46 -210 28 8 88 38 197 97 47 25 95 49 106 52
32 10 54 -18 54 -65 0 -69 40 -66 140 11 36 27 94 72 130 100 111 85 180 109
214 72 14 -16 15 -33 10 -120 l-7 -101 31 -30 c34 -35 67 -39 116 -16 53 25
91 73 147 185 49 98 62 114 187 239 244 244 391 478 426 680 23 131 81 221
143 221 61 0 385 -179 553 -304 41 -31 92 -61 115 -67 22 -6 51 -15 65 -18 14
-4 31 -19 38 -34 14 -29 49 -42 132 -51 63 -6 162 -39 265 -86 139 -64 245
-93 380 -105 101 -8 171 -39 215 -93 38 -48 101 -77 197 -93 39 -6 305 -14
633 -19 321 -4 580 -12 600 -17 19 -6 61 -18 93 -28 70 -20 90 -17 247 36 362
125 868 249 1011 249 69 0 88 -20 99 -105 14 -102 35 -150 75 -174 44 -26 68
-65 101 -166 65 -196 137 -273 182 -195 9 16 20 30 24 30 15 0 38 -61 88 -230
70 -237 106 -328 147 -369 34 -34 34 -34 54 -15 29 29 38 134 39 432 l0 264
33 -7 c62 -13 180 -56 208 -76 36 -25 97 -132 239 -420 96 -195 123 -260 154
-373 41 -147 86 -253 111 -262 70 -27 109 188 109 611 0 311 -7 382 -74 775
-27 157 -67 407 -90 555 -23 149 -52 321 -66 383 -32 152 -32 198 4 245 35 46
112 107 179 140 59 30 107 86 151 173 37 73 103 163 205 277 150 168 244 341
347 633 47 134 119 283 205 424 60 98 143 257 182 345 26 60 55 78 143 93 181
31 337 37 1040 37 504 1 739 5 795 13 176 26 199 33 280 81 44 26 112 62 150
80 66 31 69 33 50 47 -28 20 -104 42 -210 59 -86 14 -165 20 -585 45 -223 14
-310 29 -387 69 -111 57 -231 76 -758 121 -192 16 -367 34 -387 40 -50 14 -58
33 -45 100 25 127 -43 651 -128 990 -43 171 -173 556 -224 665 -50 107 -77
145 -196 280 -118 133 -148 177 -175 246 -11 30 -54 99 -96 154 -80 106 -114
163 -114 192 0 29 -46 71 -119 107 -68 35 -86 50 -106 90 -24 49 -210 116
-321 116 -63 0 -79 13 -88 70 -14 88 -77 166 -217 270 -242 179 -542 303 -791
325 -43 4 -71 12 -81 23 -9 9 -20 50 -25 90 -11 75 -24 102 -48 102 -24 0 -31
41 -27 150 4 82 0 128 -17 210 -41 201 -91 336 -140 381 -37 34 -39 54 -44
444 -4 292 -8 345 -26 345 -4 0 -25 -13 -47 -29z m-1703 -2247 c0 -11 -112
-209 -138 -244 -15 -19 -64 -78 -110 -130 -149 -172 -282 -375 -282 -432 0
-36 -67 -167 -155 -303 -122 -189 -178 -282 -265 -447 -97 -181 -165 -286
-252 -388 -87 -102 -136 -174 -148 -221 -8 -31 -18 -42 -45 -53 -24 -10 -36
-23 -41 -43 -11 -42 -70 -124 -195 -268 -62 -71 -137 -163 -167 -203 -72 -97
-85 -102 -297 -113 -216 -10 -745 -11 -745 -1 0 4 7 115 15 247 29 465 61 603
214 922 44 92 85 191 91 218 15 67 71 159 170 278 103 125 170 224 170 254 0
26 51 63 87 63 38 0 71 21 83 54 7 17 16 41 21 54 5 13 23 31 40 40 80 43 158
102 274 205 287 255 297 260 590 316 116 22 311 62 435 90 319 73 650 126 650
105z m2026 -249 c20 -8 66 -37 102 -63 37 -27 98 -63 136 -81 58 -28 98 -62
270 -230 111 -109 219 -205 241 -216 33 -16 57 -19 146 -17 123 3 127 1 138
-80 9 -65 29 -105 92 -180 59 -70 64 -81 95 -170 44 -130 110 -219 329 -448
168 -175 237 -259 261 -316 15 -35 14 -38 -12 -76 -51 -73 -43 -229 16 -303
20 -25 32 -56 41 -108 16 -90 18 -332 3 -347 -25 -25 -208 -34 -704 -35 -446
0 -515 2 -587 18 -189 40 -223 83 -237 292 -8 110 -31 211 -86 370 -109 315
-160 606 -195 1110 -27 392 -53 568 -105 715 -36 104 -38 143 -8 164 27 19 21
19 64 1z m-1011 -149 c54 -82 79 -761 36 -975 -18 -87 -14 -155 13 -219 53
-125 62 -203 102 -815 31 -478 34 -449 -42 -468 -21 -5 -208 -14 -414 -19
-206 -5 -467 -15 -580 -22 -354 -22 -683 -15 -725 16 -15 11 -12 20 30 101 26
48 77 135 113 192 133 206 132 204 132 251 0 74 47 152 246 407 191 246 252
347 349 580 89 213 172 352 306 511 43 51 124 161 179 245 151 225 214 278
255 215z m2579 -3226 c87 -11 96 -19 69 -67 -25 -46 -54 -135 -88 -271 -33
-134 -52 -180 -86 -217 -23 -24 -31 -45 -39 -104 -15 -104 -52 -167 -182 -307
-61 -65 -140 -157 -177 -202 l-66 -84 -7 34 c-20 94 -77 453 -83 521 -7 95
-28 165 -111 373 -126 316 -107 330 446 332 140 1 286 -3 324 -8z m-2216 -103
c6 -7 16 -67 22 -133 23 -247 168 -1195 185 -1213 7 -7 37 -23 67 -35 44 -18
57 -28 76 -66 30 -58 24 -104 -19 -143 -29 -28 -30 -33 -27 -91 3 -33 13 -116
23 -182 18 -114 18 -123 2 -147 -20 -31 -92 -65 -239 -112 -214 -69 -342 -96
-498 -104 -134 -7 -152 -10 -235 -43 -94 -37 -156 -52 -263 -63 -83 -8 -110
-19 -122 -50 -8 -22 -16 -25 -56 -25 -66 0 -231 36 -295 63 -66 29 -79 32
-207 52 -115 17 -196 42 -297 93 -98 49 -234 97 -420 147 -391 106 -700 250
-736 343 -5 12 -17 25 -26 28 -117 36 -313 184 -313 237 0 39 175 305 313 476
85 105 99 133 99 185 -1 49 28 102 100 183 70 80 118 156 151 239 34 88 83
147 151 181 28 14 65 41 83 59 38 41 93 57 273 80 101 13 298 17 1035 25 501
4 933 12 960 17 81 15 201 14 213 -1z m-4037 -117 c10 -6 19 -17 19 -26 0 -36
-119 -183 -171 -209 -49 -26 -59 -21 -53 28 4 29 -1 66 -16 117 -21 71 -21 74
-4 87 22 16 196 18 225 3z"/>
</g>
</svg>
